<svg width="3927" height="1433" viewBox="0 0 3927 1433" fill="none" xmlns="http://www.w3.org/2000/svg">
<rect width="3927" height="1320" fill="#FFE600"/>
<circle cx="698" cy="740" r="265" fill="#FFE600" stroke="black" stroke-width="30"/>
<path d="M201 484C96.9998 386.667 0.63065 215.513 101 124C237 0.000120163 517.686 275.568 589.686 458.235" stroke="black" stroke-width="30" stroke-linecap="round" stroke-linejoin="round"/>
<path d="M444 664L241 524" stroke="black" stroke-width="30" stroke-linejoin="round" stroke-dasharray="50 50"/>
<circle cx="601" cy="491" r="52" fill="black"/>
<path d="M682.484 755.094C682.484 752.438 681.547 750.406 679.672 749C677.797 747.562 674.422 746.062 669.547 744.5C664.672 742.906 660.812 741.344 657.969 739.812C650.219 735.625 646.344 729.984 646.344 722.891C646.344 719.203 647.375 715.922 649.438 713.047C651.531 710.141 654.516 707.875 658.391 706.25C662.297 704.625 666.672 703.812 671.516 703.812C676.391 703.812 680.734 704.703 684.547 706.484C688.359 708.234 691.312 710.719 693.406 713.938C695.531 717.156 696.594 720.812 696.594 724.906H682.531C682.531 721.781 681.547 719.359 679.578 717.641C677.609 715.891 674.844 715.016 671.281 715.016C667.844 715.016 665.172 715.75 663.266 717.219C661.359 718.656 660.406 720.562 660.406 722.938C660.406 725.156 661.516 727.016 663.734 728.516C665.984 730.016 669.281 731.422 673.625 732.734C681.625 735.141 687.453 738.125 691.109 741.688C694.766 745.25 696.594 749.688 696.594 755C696.594 760.906 694.359 765.547 689.891 768.922C685.422 772.266 679.406 773.938 671.844 773.938C666.594 773.938 661.812 772.984 657.5 771.078C653.188 769.141 649.891 766.5 647.609 763.156C645.359 759.812 644.234 755.938 644.234 751.531H658.344C658.344 759.062 662.844 762.828 671.844 762.828C675.188 762.828 677.797 762.156 679.672 760.812C681.547 759.438 682.484 757.531 682.484 755.094ZM750.641 744.781C750.641 754.219 748.688 761.438 744.781 766.438C740.875 771.438 735.156 773.938 727.625 773.938C720.188 773.938 714.5 771.484 710.562 766.578C706.625 761.672 704.609 754.641 704.516 745.484V732.922C704.516 723.391 706.484 716.156 710.422 711.219C714.391 706.281 720.094 703.812 727.531 703.812C734.969 703.812 740.656 706.266 744.594 711.172C748.531 716.047 750.547 723.062 750.641 732.219V744.781ZM737.094 731C737.094 725.344 736.312 721.234 734.75 718.672C733.219 716.078 730.812 714.781 727.531 714.781C724.344 714.781 721.984 716.016 720.453 718.484C718.953 720.922 718.156 724.75 718.062 729.969V746.562C718.062 752.125 718.812 756.266 720.312 758.984C721.844 761.672 724.281 763.016 727.625 763.016C730.938 763.016 733.328 761.719 734.797 759.125C736.266 756.531 737.031 752.562 737.094 747.219V731Z" fill="black"/>
<path d="M50.5781 60.7812C50.5781 70.2188 48.625 77.4375 44.7188 82.4375C40.8125 87.4375 35.0938 89.9375 27.5625 89.9375C20.125 89.9375 14.4375 87.4844 10.5 82.5781C6.5625 77.6719 4.54688 70.6406 4.45312 61.4844V48.9219C4.45312 39.3906 6.42188 32.1562 10.3594 27.2188C14.3281 22.2813 20.0312 19.8125 27.4688 19.8125C34.9062 19.8125 40.5938 22.2656 44.5312 27.1719C48.4688 32.0469 50.4844 39.0625 50.5781 48.2188V60.7812ZM37.0312 47C37.0312 41.3438 36.25 37.2344 34.6875 34.6719C33.1562 32.0781 30.75 30.7812 27.4688 30.7812C24.2812 30.7812 21.9219 32.0156 20.3906 34.4844C18.8906 36.9219 18.0938 40.75 18 45.9688V62.5625C18 68.125 18.75 72.2656 20.25 74.9844C21.7812 77.6719 24.2188 79.0156 27.5625 79.0156C30.875 79.0156 33.2656 77.7188 34.7344 75.125C36.2031 72.5312 36.9688 68.5625 37.0312 63.2188V47Z" fill="black"/>
<circle cx="1813" cy="772" r="265" fill="#FFE600" stroke="black" stroke-width="30"/>
<path d="M1797.48 787.094C1797.48 784.438 1796.55 782.406 1794.67 781C1792.8 779.562 1789.42 778.062 1784.55 776.5C1779.67 774.906 1775.81 773.344 1772.97 771.812C1765.22 767.625 1761.34 761.984 1761.34 754.891C1761.34 751.203 1762.38 747.922 1764.44 745.047C1766.53 742.141 1769.52 739.875 1773.39 738.25C1777.3 736.625 1781.67 735.812 1786.52 735.812C1791.39 735.812 1795.73 736.703 1799.55 738.484C1803.36 740.234 1806.31 742.719 1808.41 745.938C1810.53 749.156 1811.59 752.812 1811.59 756.906H1797.53C1797.53 753.781 1796.55 751.359 1794.58 749.641C1792.61 747.891 1789.84 747.016 1786.28 747.016C1782.84 747.016 1780.17 747.75 1778.27 749.219C1776.36 750.656 1775.41 752.562 1775.41 754.938C1775.41 757.156 1776.52 759.016 1778.73 760.516C1780.98 762.016 1784.28 763.422 1788.62 764.734C1796.62 767.141 1802.45 770.125 1806.11 773.688C1809.77 777.25 1811.59 781.688 1811.59 787C1811.59 792.906 1809.36 797.547 1804.89 800.922C1800.42 804.266 1794.41 805.938 1786.84 805.938C1781.59 805.938 1776.81 804.984 1772.5 803.078C1768.19 801.141 1764.89 798.5 1762.61 795.156C1760.36 791.812 1759.23 787.938 1759.23 783.531H1773.34C1773.34 791.062 1777.84 794.828 1786.84 794.828C1790.19 794.828 1792.8 794.156 1794.67 792.812C1796.55 791.438 1797.48 789.531 1797.48 787.094ZM1852.61 805H1839.06V752.781L1822.89 757.797V746.781L1851.16 736.656H1852.61V805Z" fill="black"/>
<path d="M3908.55 476H3895V423.781L3878.83 428.797V417.781L3907.09 407.656H3908.55V476Z" fill="black"/>
<circle cx="3032" cy="812" r="265" fill="#FFE600" stroke="black" stroke-width="30"/>
<path d="M3455.31 436.051C3583.88 374.738 3778.4 347.466 3826.98 474.307C3892.8 646.177 3533.82 806.957 3337.47 807.338" stroke="black" stroke-width="30" stroke-linecap="round" stroke-linejoin="round"/>
<circle cx="3302.84" cy="805.917" r="52" transform="rotate(111.401 3302.84 805.917)" fill="black"/>
<path d="M3199.05 596.616L3403.47 458.698" stroke="black" stroke-width="30" stroke-linejoin="round" stroke-dasharray="50 50"/>
<path d="M3016.48 827.094C3016.48 824.438 3015.55 822.406 3013.67 821C3011.8 819.562 3008.42 818.062 3003.55 816.5C2998.67 814.906 2994.81 813.344 2991.97 811.812C2984.22 807.625 2980.34 801.984 2980.34 794.891C2980.34 791.203 2981.38 787.922 2983.44 785.047C2985.53 782.141 2988.52 779.875 2992.39 778.25C2996.3 776.625 3000.67 775.812 3005.52 775.812C3010.39 775.812 3014.73 776.703 3018.55 778.484C3022.36 780.234 3025.31 782.719 3027.41 785.938C3029.53 789.156 3030.59 792.812 3030.59 796.906H3016.53C3016.53 793.781 3015.55 791.359 3013.58 789.641C3011.61 787.891 3008.84 787.016 3005.28 787.016C3001.84 787.016 2999.17 787.75 2997.27 789.219C2995.36 790.656 2994.41 792.562 2994.41 794.938C2994.41 797.156 2995.52 799.016 2997.73 800.516C2999.98 802.016 3003.28 803.422 3007.62 804.734C3015.62 807.141 3021.45 810.125 3025.11 813.688C3028.77 817.25 3030.59 821.688 3030.59 827C3030.59 832.906 3028.36 837.547 3023.89 840.922C3019.42 844.266 3013.41 845.938 3005.84 845.938C3000.59 845.938 2995.81 844.984 2991.5 843.078C2987.19 841.141 2983.89 838.5 2981.61 835.156C2979.36 831.812 2978.23 827.938 2978.23 823.531H2992.34C2992.34 831.062 2996.84 834.828 3005.84 834.828C3009.19 834.828 3011.8 834.156 3013.67 832.812C3015.55 831.438 3016.48 829.531 3016.48 827.094ZM3085.48 845H3038.7V835.719L3060.78 812.188C3063.81 808.875 3066.05 805.984 3067.48 803.516C3068.95 801.047 3069.69 798.703 3069.69 796.484C3069.69 793.453 3068.92 791.078 3067.39 789.359C3065.86 787.609 3063.67 786.734 3060.83 786.734C3057.77 786.734 3055.34 787.797 3053.56 789.922C3051.81 792.016 3050.94 794.781 3050.94 798.219H3037.34C3037.34 794.062 3038.33 790.266 3040.3 786.828C3042.3 783.391 3045.11 780.703 3048.73 778.766C3052.36 776.797 3056.47 775.812 3061.06 775.812C3068.09 775.812 3073.55 777.5 3077.42 780.875C3081.33 784.25 3083.28 789.016 3083.28 795.172C3083.28 798.547 3082.41 801.984 3080.66 805.484C3078.91 808.984 3075.91 813.062 3071.66 817.719L3056.14 834.078H3085.48V845Z" fill="black"/>
<path d="M1308.09 1292.23L1294.6 1293.51L1289.66 1241.53L1274.04 1248.05L1273 1237.09L1300.18 1224.33L1301.62 1224.19L1308.09 1292.23Z" fill="black"/>
<path d="M1015.55 1093.18C1015.55 1093.18 1145.8 1176.7 1332.42 1156.99C1511.47 1138.08 1645.36 1011.41 1645.36 1011.41" stroke="black" stroke-width="30" stroke-linejoin="round"/>
<path d="M850.678 956.826C866.484 984.65 898.571 1049.23 975.398 1079.19" stroke="black" stroke-width="30" stroke-linejoin="round" stroke-dasharray="50 50"/>
<circle cx="1652.73" cy="1005.38" r="52" transform="rotate(81.8001 1652.73 1005.38)" fill="black"/>
<path d="M2408.77 1247.6C2409.98 1256.96 2408.96 1264.37 2405.73 1269.83C2402.49 1275.28 2397.14 1278.49 2389.67 1279.46C2382.29 1280.41 2376.34 1278.7 2371.81 1274.33C2367.27 1269.97 2364.38 1263.26 2363.12 1254.19L2361.51 1241.73C2360.29 1232.27 2361.32 1224.85 2364.6 1219.45C2367.9 1214.04 2373.25 1210.87 2380.62 1209.92C2388 1208.97 2393.95 1210.67 2398.48 1215.04C2403.01 1219.37 2405.91 1226.07 2407.17 1235.14L2408.77 1247.6ZM2393.58 1235.66C2392.86 1230.05 2391.56 1226.07 2389.68 1223.73C2387.83 1221.36 2385.28 1220.38 2382.02 1220.8C2378.86 1221.2 2376.68 1222.73 2375.47 1225.37C2374.3 1227.98 2374 1231.88 2374.57 1237.07L2376.69 1253.53C2377.4 1259.04 2378.67 1263.05 2380.51 1265.56C2382.37 1268.03 2384.96 1269.05 2388.27 1268.62C2391.56 1268.2 2393.76 1266.61 2394.89 1263.85C2396.02 1261.09 2396.27 1257.05 2395.65 1251.75L2393.58 1235.66Z" fill="black"/>
<path d="M2173.26 1088.44C2173.26 1088.44 2306.22 1167.58 2492.09 1141.67C2670.41 1116.81 2800 985.765 2800 985.765" stroke="black" stroke-width="30" stroke-linejoin="round"/>
<path d="M2003.95 957.645C2020.67 984.928 2054.89 1048.4 2132.67 1075.79" stroke="black" stroke-width="30" stroke-linejoin="round" stroke-dasharray="50 50"/>
<circle cx="2807.17" cy="979.485" r="52" transform="rotate(79.8936 2807.17 979.485)" fill="black"/>
<path d="M2381.77 322.454C2382.73 331.843 2381.52 339.223 2378.14 344.593C2374.76 349.964 2369.33 353.032 2361.84 353.797C2354.44 354.552 2348.53 352.689 2344.11 348.208C2339.7 343.727 2336.98 336.937 2335.96 327.838L2334.68 315.34C2333.71 305.858 2334.94 298.461 2338.35 293.149C2341.8 287.834 2347.22 284.799 2354.62 284.044C2362.02 283.289 2367.93 285.152 2372.34 289.633C2376.75 294.083 2379.47 300.857 2380.5 309.957L2381.77 322.454ZM2366.9 310.12C2366.32 304.493 2365.13 300.484 2363.31 298.093C2361.52 295.669 2359 294.623 2355.73 294.956C2352.56 295.28 2350.34 296.747 2349.07 299.359C2347.82 301.936 2347.42 305.825 2347.86 311.027L2349.54 327.534C2350.11 333.068 2351.27 337.111 2353.04 339.664C2354.84 342.182 2357.4 343.271 2360.73 342.931C2364.02 342.595 2366.27 341.062 2367.47 338.333C2368.66 335.603 2369.02 331.577 2368.54 326.255L2366.9 310.12Z" fill="black"/>
<path d="M2657.42 489.378C2657.42 489.378 2526.59 406.77 2340.11 427.781C2161.19 447.939 2028.19 575.532 2028.19 575.532" stroke="black" stroke-width="30" stroke-linejoin="round"/>
<path d="M2823.24 624.583C2807.24 596.87 2774.7 532.516 2697.67 503.091" stroke="black" stroke-width="30" stroke-linejoin="round" stroke-dasharray="50 50"/>
<circle cx="2020.87" cy="581.622" r="52" transform="rotate(-98.599 2020.87 581.622)" fill="black"/>
<path d="M1207.25 283.552L1193.7 283.552L1193.7 231.333L1177.53 236.349L1177.53 225.333L1205.79 215.208L1207.25 215.208L1207.25 283.552Z" fill="black"/>
<path d="M1504.82 403.795C1504.82 403.795 1369.77 328.276 1184.67 359.192C1007.09 388.854 881.076 523.352 881.076 523.352" stroke="black" stroke-width="30" stroke-linejoin="round"/>
<path d="M1677.6 529.973C1660.15 503.152 1624.23 440.624 1545.74 415.344" stroke="black" stroke-width="30" stroke-linejoin="round" stroke-dasharray="50 50"/>
<circle cx="874.086" cy="529.824" r="52" transform="rotate(-101.653 874.086 529.824)" fill="black"/>
<path d="M17.3934 794.393C11.5355 800.251 11.5355 809.749 17.3934 815.607L112.853 911.066C118.711 916.924 128.208 916.924 134.066 911.066C139.924 905.208 139.924 895.711 134.066 889.853L49.2132 805L134.066 720.147C139.924 714.289 139.924 704.792 134.066 698.934C128.208 693.076 118.711 693.076 112.853 698.934L17.3934 794.393ZM381.607 815.607C387.464 809.749 387.464 800.251 381.607 794.393L286.147 698.934C280.289 693.076 270.792 693.076 264.934 698.934C259.076 704.792 259.076 714.289 264.934 720.147L349.787 805L264.934 889.853C259.076 895.711 259.076 905.208 264.934 911.066C270.792 916.924 280.289 916.924 286.147 911.066L381.607 815.607ZM28 820L371 820L371 790L28 790L28 820Z" fill="black"/>
<path d="M0 606H163V1143H0V606Z" fill="#FFE600"/>
</svg>
