<svg width="573" height="556" viewBox="0 0 573 556" fill="none" xmlns="http://www.w3.org/2000/svg">
<rect width="573" height="556" rx="10" fill="#FFE600"/>
<path d="M503 246H471V294H503V246Z" fill="black"/>
<path d="M103 246H71V294H103V246Z" fill="black"/>
<path d="M263 94H135V174H263V94Z" fill="#FFE600"/>
<path d="M535 190H455C441.768 190 431 179.232 431 166C431 152.768 441.768 142 455 142V126C441.768 126 431 115.232 431 102C431 88.768 441.768 78 455 78V62H327C304.944 62 287 79.944 287 102C287 115.128 293.448 126.704 303.248 134C293.448 141.296 287 152.872 287 166C287 175.04 290.128 183.296 295.208 190H271V30H207H191H127V190H39V254H63V526H111V478H463V526H511V254H535V190ZM303 102C303 88.768 313.768 78 327 78H423.016C417.984 84.688 415 93 415 102C415 111 417.984 119.312 423.016 126H327C313.768 126 303 115.232 303 102ZM303 166C303 152.768 313.768 142 327 142H423.016C417.984 148.688 415 157 415 166C415 175 417.984 183.312 423.016 190H327C313.768 190 303 179.232 303 166ZM255 46V190H207V46H255ZM143 46H191V190H143V46ZM79 510V254H95V510H79ZM111 366H463V430H111V366ZM111 350V334H463V350H111ZM111 318V254H463V318H111ZM111 462V446H463V462H111ZM495 510H479V254H495V510ZM519 238H55V206H327H455H519V238Z" fill="black"/>
<path d="M175 62H159V78H175V62Z" fill="black"/>
<path d="M175 94H159V174H175V94Z" fill="black"/>
<path d="M239 62H223V78H239V62Z" fill="black"/>
<path d="M239 94H223V174H239V94Z" fill="black"/>
<path d="M335 158H319V174H335V158Z" fill="black"/>
<path d="M399 158H351V174H399V158Z" fill="black"/>
<path d="M335 94H319V110H335V94Z" fill="black"/>
<path d="M399 94H351V110H399V94Z" fill="black"/>
</svg>
