<svg width="2774" height="1909" viewBox="0 0 2774 1909" fill="none" xmlns="http://www.w3.org/2000/svg">
<rect width="2774" height="1909" fill="black"/>
<circle cx="777" cy="833" r="272.5" fill="black" stroke="#FFE600" stroke-width="15"/>
<path d="M281 577C177 479.667 80.6306 308.513 181 217C317 93 597.686 368.568 669.686 551.235" stroke="#FFE600" stroke-width="15" stroke-linecap="round" stroke-linejoin="round"/>
<path d="M523 757L320 617" stroke="#FFE600" stroke-width="15" stroke-linejoin="round" stroke-dasharray="50 50"/>
<circle cx="680" cy="584" r="52" fill="#FFE600"/>
<path d="M761.484 848.094C761.484 845.438 760.547 843.406 758.672 842C756.797 840.562 753.422 839.062 748.547 837.5C743.672 835.906 739.812 834.344 736.969 832.812C729.219 828.625 725.344 822.984 725.344 815.891C725.344 812.203 726.375 808.922 728.438 806.047C730.531 803.141 733.516 800.875 737.391 799.25C741.297 797.625 745.672 796.812 750.516 796.812C755.391 796.812 759.734 797.703 763.547 799.484C767.359 801.234 770.312 803.719 772.406 806.938C774.531 810.156 775.594 813.812 775.594 817.906H761.531C761.531 814.781 760.547 812.359 758.578 810.641C756.609 808.891 753.844 808.016 750.281 808.016C746.844 808.016 744.172 808.75 742.266 810.219C740.359 811.656 739.406 813.562 739.406 815.938C739.406 818.156 740.516 820.016 742.734 821.516C744.984 823.016 748.281 824.422 752.625 825.734C760.625 828.141 766.453 831.125 770.109 834.688C773.766 838.25 775.594 842.688 775.594 848C775.594 853.906 773.359 858.547 768.891 861.922C764.422 865.266 758.406 866.938 750.844 866.938C745.594 866.938 740.812 865.984 736.5 864.078C732.188 862.141 728.891 859.5 726.609 856.156C724.359 852.812 723.234 848.938 723.234 844.531H737.344C737.344 852.062 741.844 855.828 750.844 855.828C754.188 855.828 756.797 855.156 758.672 853.812C760.547 852.438 761.484 850.531 761.484 848.094ZM829.641 837.781C829.641 847.219 827.688 854.438 823.781 859.438C819.875 864.438 814.156 866.938 806.625 866.938C799.188 866.938 793.5 864.484 789.562 859.578C785.625 854.672 783.609 847.641 783.516 838.484V825.922C783.516 816.391 785.484 809.156 789.422 804.219C793.391 799.281 799.094 796.812 806.531 796.812C813.969 796.812 819.656 799.266 823.594 804.172C827.531 809.047 829.547 816.062 829.641 825.219V837.781ZM816.094 824C816.094 818.344 815.312 814.234 813.75 811.672C812.219 809.078 809.812 807.781 806.531 807.781C803.344 807.781 800.984 809.016 799.453 811.484C797.953 813.922 797.156 817.75 797.062 822.969V839.562C797.062 845.125 797.812 849.266 799.312 851.984C800.844 854.672 803.281 856.016 806.625 856.016C809.938 856.016 812.328 854.719 813.797 852.125C815.266 849.531 816.031 845.562 816.094 840.219V824Z" fill="#FFE600"/>
<path d="M79.5781 153.781C79.5781 163.219 77.625 170.438 73.7188 175.438C69.8125 180.438 64.0938 182.938 56.5625 182.938C49.125 182.938 43.4375 180.484 39.5 175.578C35.5625 170.672 33.5469 163.641 33.4531 154.484V141.922C33.4531 132.391 35.4219 125.156 39.3594 120.219C43.3281 115.281 49.0312 112.812 56.4688 112.812C63.9062 112.812 69.5938 115.266 73.5312 120.172C77.4688 125.047 79.4844 132.062 79.5781 141.219V153.781ZM66.0312 140C66.0312 134.344 65.25 130.234 63.6875 127.672C62.1562 125.078 59.75 123.781 56.4688 123.781C53.2812 123.781 50.9219 125.016 49.3906 127.484C47.8906 129.922 47.0938 133.75 47 138.969V155.562C47 161.125 47.75 165.266 49.25 167.984C50.7812 170.672 53.2188 172.016 56.5625 172.016C59.875 172.016 62.2656 170.719 63.7344 168.125C65.2031 165.531 65.9688 161.562 66.0312 156.219V140ZM93.5938 187.859H83.5156L108.641 113.75H118.719L93.5938 187.859ZM170.609 153.781C170.609 163.219 168.656 170.438 164.75 175.438C160.844 180.438 155.125 182.938 147.594 182.938C140.156 182.938 134.469 180.484 130.531 175.578C126.594 170.672 124.578 163.641 124.484 154.484V141.922C124.484 132.391 126.453 125.156 130.391 120.219C134.359 115.281 140.062 112.812 147.5 112.812C154.938 112.812 160.625 115.266 164.562 120.172C168.5 125.047 170.516 132.062 170.609 141.219V153.781ZM157.062 140C157.062 134.344 156.281 130.234 154.719 127.672C153.188 125.078 150.781 123.781 147.5 123.781C144.312 123.781 141.953 125.016 140.422 127.484C138.922 129.922 138.125 133.75 138.031 138.969V155.562C138.031 161.125 138.781 165.266 140.281 167.984C141.812 170.672 144.25 172.016 147.594 172.016C150.906 172.016 153.297 170.719 154.766 168.125C156.234 165.531 157 161.562 157.062 156.219V140Z" fill="#FFE600"/>
<path d="M2648.55 1269H2635V1216.78L2618.83 1221.8V1210.78L2647.09 1200.66H2648.55V1269ZM2675.59 1274.86H2665.52L2690.64 1200.75H2700.72L2675.59 1274.86ZM2739.58 1269H2726.03V1216.78L2709.86 1221.8V1210.78L2738.12 1200.66H2739.58V1269Z" fill="#FFE600"/>
<circle cx="1772" cy="1605" r="272.5" fill="black" stroke="#FFE600" stroke-width="15"/>
<path d="M2195.31 1229.05C2323.88 1167.74 2518.4 1140.47 2566.98 1267.31C2632.8 1439.18 2273.82 1599.96 2077.47 1600.34" stroke="#FFE600" stroke-width="15" stroke-linecap="round" stroke-linejoin="round"/>
<circle cx="2042.84" cy="1598.92" r="52" transform="rotate(111.401 2042.84 1598.92)" fill="#FFE600"/>
<path d="M1939.05 1389.62L2143.47 1251.7" stroke="#FFE600" stroke-width="15" stroke-linejoin="round" stroke-dasharray="50 50"/>
<path d="M1756.48 1620.09C1756.48 1617.44 1755.55 1615.41 1753.67 1614C1751.8 1612.56 1748.42 1611.06 1743.55 1609.5C1738.67 1607.91 1734.81 1606.34 1731.97 1604.81C1724.22 1600.62 1720.34 1594.98 1720.34 1587.89C1720.34 1584.2 1721.38 1580.92 1723.44 1578.05C1725.53 1575.14 1728.52 1572.88 1732.39 1571.25C1736.3 1569.62 1740.67 1568.81 1745.52 1568.81C1750.39 1568.81 1754.73 1569.7 1758.55 1571.48C1762.36 1573.23 1765.31 1575.72 1767.41 1578.94C1769.53 1582.16 1770.59 1585.81 1770.59 1589.91H1756.53C1756.53 1586.78 1755.55 1584.36 1753.58 1582.64C1751.61 1580.89 1748.84 1580.02 1745.28 1580.02C1741.84 1580.02 1739.17 1580.75 1737.27 1582.22C1735.36 1583.66 1734.41 1585.56 1734.41 1587.94C1734.41 1590.16 1735.52 1592.02 1737.73 1593.52C1739.98 1595.02 1743.28 1596.42 1747.62 1597.73C1755.62 1600.14 1761.45 1603.12 1765.11 1606.69C1768.77 1610.25 1770.59 1614.69 1770.59 1620C1770.59 1625.91 1768.36 1630.55 1763.89 1633.92C1759.42 1637.27 1753.41 1638.94 1745.84 1638.94C1740.59 1638.94 1735.81 1637.98 1731.5 1636.08C1727.19 1634.14 1723.89 1631.5 1721.61 1628.16C1719.36 1624.81 1718.23 1620.94 1718.23 1616.53H1732.34C1732.34 1624.06 1736.84 1627.83 1745.84 1627.83C1749.19 1627.83 1751.8 1627.16 1753.67 1625.81C1755.55 1624.44 1756.48 1622.53 1756.48 1620.09ZM1811.61 1638H1798.06V1585.78L1781.89 1590.8V1579.78L1810.16 1569.66H1811.61V1638Z" fill="#FFE600"/>
<path d="M974.578 1534.78C974.578 1544.22 972.625 1551.44 968.719 1556.44C964.812 1561.44 959.094 1563.94 951.562 1563.94C944.125 1563.94 938.438 1561.48 934.5 1556.58C930.562 1551.67 928.547 1544.64 928.453 1535.48V1522.92C928.453 1513.39 930.422 1506.16 934.359 1501.22C938.328 1496.28 944.031 1493.81 951.469 1493.81C958.906 1493.81 964.594 1496.27 968.531 1501.17C972.469 1506.05 974.484 1513.06 974.578 1522.22V1534.78ZM961.031 1521C961.031 1515.34 960.25 1511.23 958.688 1508.67C957.156 1506.08 954.75 1504.78 951.469 1504.78C948.281 1504.78 945.922 1506.02 944.391 1508.48C942.891 1510.92 942.094 1514.75 942 1519.97V1536.56C942 1542.12 942.75 1546.27 944.25 1548.98C945.781 1551.67 948.219 1553.02 951.562 1553.02C954.875 1553.02 957.266 1551.72 958.734 1549.12C960.203 1546.53 960.969 1542.56 961.031 1537.22V1521ZM988.594 1568.86H978.516L1003.64 1494.75H1013.72L988.594 1568.86ZM1052.58 1563H1039.03V1510.78L1022.86 1515.8V1504.78L1051.12 1494.66H1052.58V1563Z" fill="#FFE600"/>
<path d="M924 1293C924 1293 996 1429.96 1168 1505C1333.02 1577 1512 1533 1512 1533" stroke="#FFE600" stroke-width="15" stroke-linejoin="round"/>
<path d="M848 1093C848 1125 844 1197 896 1261" stroke="#FFE600" stroke-width="30" stroke-linejoin="round" stroke-dasharray="50 50"/>
<circle cx="1521.39" cy="1531.39" r="52" transform="rotate(111.401 1521.39 1531.39)" fill="#FFE600"/>
</svg>
