<svg width="2563" height="2209" viewBox="0 0 2563 2209" fill="none" xmlns="http://www.w3.org/2000/svg">
<rect width="2517" height="2086" fill="#FFE600"/>
<circle cx="1421" cy="740" r="265" fill="#FFE600" stroke="black" stroke-width="30"/>
<path d="M924 484C820 386.667 723.631 215.513 824 124C960 -1.90735e-06 1240.69 275.568 1312.69 458.235" stroke="black" stroke-width="30" stroke-linecap="round" stroke-linejoin="round"/>
<path d="M1167 664L964 524" stroke="black" stroke-width="30" stroke-linejoin="round" stroke-dasharray="50 50"/>
<circle cx="1324" cy="491" r="52" fill="black"/>
<path d="M1405.48 755.094C1405.48 752.438 1404.55 750.406 1402.67 749C1400.8 747.562 1397.42 746.062 1392.55 744.5C1387.67 742.906 1383.81 741.344 1380.97 739.812C1373.22 735.625 1369.34 729.984 1369.34 722.891C1369.34 719.203 1370.38 715.922 1372.44 713.047C1374.53 710.141 1377.52 707.875 1381.39 706.25C1385.3 704.625 1389.67 703.812 1394.52 703.812C1399.39 703.812 1403.73 704.703 1407.55 706.484C1411.36 708.234 1414.31 710.719 1416.41 713.938C1418.53 717.156 1419.59 720.812 1419.59 724.906H1405.53C1405.53 721.781 1404.55 719.359 1402.58 717.641C1400.61 715.891 1397.84 715.016 1394.28 715.016C1390.84 715.016 1388.17 715.75 1386.27 717.219C1384.36 718.656 1383.41 720.562 1383.41 722.938C1383.41 725.156 1384.52 727.016 1386.73 728.516C1388.98 730.016 1392.28 731.422 1396.62 732.734C1404.62 735.141 1410.45 738.125 1414.11 741.688C1417.77 745.25 1419.59 749.688 1419.59 755C1419.59 760.906 1417.36 765.547 1412.89 768.922C1408.42 772.266 1402.41 773.938 1394.84 773.938C1389.59 773.938 1384.81 772.984 1380.5 771.078C1376.19 769.141 1372.89 766.5 1370.61 763.156C1368.36 759.812 1367.23 755.938 1367.23 751.531H1381.34C1381.34 759.062 1385.84 762.828 1394.84 762.828C1398.19 762.828 1400.8 762.156 1402.67 760.812C1404.55 759.438 1405.48 757.531 1405.48 755.094ZM1473.64 744.781C1473.64 754.219 1471.69 761.438 1467.78 766.438C1463.88 771.438 1458.16 773.938 1450.62 773.938C1443.19 773.938 1437.5 771.484 1433.56 766.578C1429.62 761.672 1427.61 754.641 1427.52 745.484V732.922C1427.52 723.391 1429.48 716.156 1433.42 711.219C1437.39 706.281 1443.09 703.812 1450.53 703.812C1457.97 703.812 1463.66 706.266 1467.59 711.172C1471.53 716.047 1473.55 723.062 1473.64 732.219V744.781ZM1460.09 731C1460.09 725.344 1459.31 721.234 1457.75 718.672C1456.22 716.078 1453.81 714.781 1450.53 714.781C1447.34 714.781 1444.98 716.016 1443.45 718.484C1441.95 720.922 1441.16 724.75 1441.06 729.969V746.562C1441.06 752.125 1441.81 756.266 1443.31 758.984C1444.84 761.672 1447.28 763.016 1450.62 763.016C1453.94 763.016 1456.33 761.719 1457.8 759.125C1459.27 756.531 1460.03 752.562 1460.09 747.219V731Z" fill="black"/>
<path d="M723.578 60.7812C723.578 70.2188 721.625 77.4375 717.719 82.4375C713.812 87.4375 708.094 89.9375 700.562 89.9375C693.125 89.9375 687.438 87.4844 683.5 82.5781C679.562 77.6719 677.547 70.6406 677.453 61.4844V48.9219C677.453 39.3906 679.422 32.1562 683.359 27.2188C687.328 22.2813 693.031 19.8125 700.469 19.8125C707.906 19.8125 713.594 22.2656 717.531 27.1719C721.469 32.0469 723.484 39.0625 723.578 48.2188V60.7812ZM710.031 47C710.031 41.3438 709.25 37.2344 707.688 34.6719C706.156 32.0781 703.75 30.7812 700.469 30.7812C697.281 30.7812 694.922 32.0156 693.391 34.4844C691.891 36.9219 691.094 40.75 691 45.9688V62.5625C691 68.125 691.75 72.2656 693.25 74.9844C694.781 77.6719 697.219 79.0156 700.562 79.0156C703.875 79.0156 706.266 77.7188 707.734 75.125C709.203 72.5312 709.969 68.5625 710.031 63.2188V47ZM737.594 94.8594H727.516L752.641 20.75H762.719L737.594 94.8594ZM814.609 60.7812C814.609 70.2188 812.656 77.4375 808.75 82.4375C804.844 87.4375 799.125 89.9375 791.594 89.9375C784.156 89.9375 778.469 87.4844 774.531 82.5781C770.594 77.6719 768.578 70.6406 768.484 61.4844V48.9219C768.484 39.3906 770.453 32.1562 774.391 27.2188C778.359 22.2813 784.062 19.8125 791.5 19.8125C798.938 19.8125 804.625 22.2656 808.562 27.1719C812.5 32.0469 814.516 39.0625 814.609 48.2188V60.7812ZM801.062 47C801.062 41.3438 800.281 37.2344 798.719 34.6719C797.188 32.0781 794.781 30.7812 791.5 30.7812C788.312 30.7812 785.953 32.0156 784.422 34.4844C782.922 36.9219 782.125 40.75 782.031 45.9688V62.5625C782.031 68.125 782.781 72.2656 784.281 74.9844C785.812 77.6719 788.25 79.0156 791.594 79.0156C794.906 79.0156 797.297 77.7188 798.766 75.125C800.234 72.5312 801 68.5625 801.062 63.2188V47Z" fill="black"/>
<path d="M856.422 1252.87L842.875 1252.87L842.875 1200.65L826.703 1205.67L826.703 1194.65L854.968 1184.53L856.422 1184.53L856.422 1252.87ZM883.468 1258.73L873.39 1258.73L898.515 1184.62L908.593 1184.62L883.468 1258.73ZM947.453 1252.87L933.906 1252.87L933.906 1200.65L917.734 1205.67L917.734 1194.65L946 1184.53L947.453 1184.53L947.453 1252.87Z" fill="black"/>
<path d="M1055.83 1017.32C1055.83 1017.32 991.158 1157.89 1036.53 1339.98C1080.07 1514.68 1224.06 1629.73 1224.06 1629.73" stroke="black" stroke-width="30" stroke-linejoin="round"/>
<path d="M1168.03 835.147C1142.66 854.655 1083.15 895.379 1064.12 975.616" stroke="black" stroke-width="30" stroke-linejoin="round" stroke-dasharray="50 50"/>
<circle cx="1231.06" cy="1636.19" r="52" transform="rotate(163.837 1231.06 1636.19)" fill="black"/>
<circle cx="1466" cy="1782" r="265" fill="#FFE600" stroke="black" stroke-width="30"/>
<path d="M2407.32 1739.04H2393.77V1686.82L2377.6 1691.84V1680.82L2405.87 1670.7H2407.32V1739.04ZM2434.37 1744.9H2424.29L2449.41 1670.79H2459.49L2434.37 1744.9ZM2511.38 1710.82C2511.38 1720.26 2509.43 1727.48 2505.52 1732.48C2501.62 1737.48 2495.9 1739.98 2488.37 1739.98C2480.93 1739.98 2475.24 1737.53 2471.3 1732.62C2467.37 1727.71 2465.35 1720.68 2465.26 1711.53V1698.96C2465.26 1689.43 2467.23 1682.2 2471.16 1677.26C2475.13 1672.32 2480.83 1669.85 2488.27 1669.85C2495.71 1669.85 2501.4 1672.31 2505.33 1677.21C2509.27 1682.09 2511.29 1689.1 2511.38 1698.26V1710.82ZM2497.83 1697.04C2497.83 1691.39 2497.05 1687.28 2495.49 1684.71C2493.96 1682.12 2491.55 1680.82 2488.27 1680.82C2485.08 1680.82 2482.73 1682.06 2481.19 1684.53C2479.69 1686.96 2478.9 1690.79 2478.8 1696.01V1712.6C2478.8 1718.17 2479.55 1722.31 2481.05 1725.03C2482.58 1727.71 2485.02 1729.06 2488.37 1729.06C2491.68 1729.06 2494.07 1727.76 2495.54 1725.17C2497.01 1722.57 2497.77 1718.6 2497.83 1713.26V1697.04Z" fill="black"/>
<path d="M1972.68 1572.73C2112.74 1546.79 2307.69 1570.79 2321.78 1705.88C2340.88 1888.93 1952.51 1951.32 1762.76 1900.87" stroke="black" stroke-width="30" stroke-linecap="round" stroke-linejoin="round"/>
<path d="M1683.6 1661.5L1916.75 1581.19" stroke="black" stroke-width="30" stroke-linejoin="round" stroke-dasharray="50 50"/>
<circle cx="1709.84" cy="1876.92" r="52" transform="rotate(111.401 1709.84 1876.92)" fill="black"/>
<path d="M1450.48 1797.09C1450.48 1794.44 1449.55 1792.41 1447.67 1791C1445.8 1789.56 1442.42 1788.06 1437.55 1786.5C1432.67 1784.91 1428.81 1783.34 1425.97 1781.81C1418.22 1777.62 1414.34 1771.98 1414.34 1764.89C1414.34 1761.2 1415.38 1757.92 1417.44 1755.05C1419.53 1752.14 1422.52 1749.87 1426.39 1748.25C1430.3 1746.62 1434.67 1745.81 1439.52 1745.81C1444.39 1745.81 1448.73 1746.7 1452.55 1748.48C1456.36 1750.23 1459.31 1752.72 1461.41 1755.94C1463.53 1759.16 1464.59 1762.81 1464.59 1766.91H1450.53C1450.53 1763.78 1449.55 1761.36 1447.58 1759.64C1445.61 1757.89 1442.84 1757.02 1439.28 1757.02C1435.84 1757.02 1433.17 1757.75 1431.27 1759.22C1429.36 1760.66 1428.41 1762.56 1428.41 1764.94C1428.41 1767.16 1429.52 1769.02 1431.73 1770.52C1433.98 1772.02 1437.28 1773.42 1441.63 1774.73C1449.63 1777.14 1455.45 1780.12 1459.11 1783.69C1462.77 1787.25 1464.59 1791.69 1464.59 1797C1464.59 1802.91 1462.36 1807.55 1457.89 1810.92C1453.42 1814.27 1447.41 1815.94 1439.84 1815.94C1434.59 1815.94 1429.81 1814.98 1425.5 1813.08C1421.19 1811.14 1417.89 1808.5 1415.61 1805.16C1413.36 1801.81 1412.23 1797.94 1412.23 1793.53H1426.34C1426.34 1801.06 1430.84 1804.83 1439.84 1804.83C1443.19 1804.83 1445.8 1804.16 1447.67 1802.81C1449.55 1801.44 1450.48 1799.53 1450.48 1797.09ZM1505.61 1815H1492.06V1762.78L1475.89 1767.8V1756.78L1504.16 1746.66H1505.61V1815Z" fill="black"/>
<path d="M1969.6 1173.68C1969.6 1183.12 1967.64 1190.34 1963.74 1195.34C1959.83 1200.34 1954.11 1202.84 1946.58 1202.84C1939.14 1202.84 1933.46 1200.38 1929.52 1195.48C1925.58 1190.57 1923.56 1183.54 1923.47 1174.38V1161.82C1923.47 1152.29 1925.44 1145.06 1929.38 1140.12C1933.35 1135.18 1939.05 1132.71 1946.49 1132.71C1953.92 1132.71 1959.61 1135.17 1963.55 1140.07C1967.49 1144.95 1969.5 1151.96 1969.6 1161.12V1173.68ZM1956.05 1159.9C1956.05 1154.24 1955.27 1150.13 1953.71 1147.57C1952.17 1144.98 1949.77 1143.68 1946.49 1143.68C1943.3 1143.68 1940.94 1144.92 1939.41 1147.38C1937.91 1149.82 1937.11 1153.65 1937.02 1158.87V1175.46C1937.02 1181.02 1937.77 1185.17 1939.27 1187.88C1940.8 1190.57 1943.24 1191.92 1946.58 1191.92C1949.89 1191.92 1952.28 1190.62 1953.75 1188.02C1955.22 1185.43 1955.99 1181.46 1956.05 1176.12V1159.9ZM1983.61 1207.76H1973.53L1998.66 1133.65H2008.74L1983.61 1207.76ZM2047.6 1201.9H2034.05V1149.68L2017.88 1154.7V1143.68L2046.14 1133.56H2047.6V1201.9Z" fill="black"/>
<path d="M1803.48 1440.49C1803.48 1440.49 1879.05 1305.47 1848.19 1120.36C1818.59 942.766 1684.14 816.71 1684.14 816.71" stroke="black" stroke-width="30" stroke-linejoin="round"/>
<path d="M1677.24 1613.23C1704.07 1595.79 1766.61 1559.89 1791.92 1481.41" stroke="black" stroke-width="30" stroke-linejoin="round" stroke-dasharray="50 50"/>
<circle cx="1677.67" cy="809.717" r="52" transform="rotate(-11.6337 1677.67 809.717)" fill="black"/>
<circle cx="280" cy="1309" r="265" fill="#FFE600" stroke="black" stroke-width="30"/>
<path d="M264.484 1324.09C264.484 1321.44 263.547 1319.41 261.672 1318C259.797 1316.56 256.422 1315.06 251.547 1313.5C246.672 1311.91 242.812 1310.34 239.969 1308.81C232.219 1304.63 228.344 1298.98 228.344 1291.89C228.344 1288.2 229.375 1284.92 231.438 1282.05C233.531 1279.14 236.516 1276.88 240.391 1275.25C244.297 1273.63 248.672 1272.81 253.516 1272.81C258.391 1272.81 262.734 1273.7 266.547 1275.48C270.359 1277.23 273.312 1279.72 275.406 1282.94C277.531 1286.16 278.594 1289.81 278.594 1293.91H264.531C264.531 1290.78 263.547 1288.36 261.578 1286.64C259.609 1284.89 256.844 1284.02 253.281 1284.02C249.844 1284.02 247.172 1284.75 245.266 1286.22C243.359 1287.66 242.406 1289.56 242.406 1291.94C242.406 1294.16 243.516 1296.02 245.734 1297.52C247.984 1299.02 251.281 1300.42 255.625 1301.73C263.625 1304.14 269.453 1307.13 273.109 1310.69C276.766 1314.25 278.594 1318.69 278.594 1324C278.594 1329.91 276.359 1334.55 271.891 1337.92C267.422 1341.27 261.406 1342.94 253.844 1342.94C248.594 1342.94 243.812 1341.98 239.5 1340.08C235.188 1338.14 231.891 1335.5 229.609 1332.16C227.359 1328.81 226.234 1324.94 226.234 1320.53H240.344C240.344 1328.06 244.844 1331.83 253.844 1331.83C257.188 1331.83 259.797 1331.16 261.672 1329.81C263.547 1328.44 264.484 1326.53 264.484 1324.09ZM301.562 1342H287.969V1291.28H301.562V1342ZM287.172 1278.16C287.172 1276.13 287.844 1274.45 289.188 1273.14C290.562 1271.83 292.422 1271.17 294.766 1271.17C297.078 1271.17 298.922 1271.83 300.297 1273.14C301.672 1274.45 302.359 1276.13 302.359 1278.16C302.359 1280.22 301.656 1281.91 300.25 1283.22C298.875 1284.53 297.047 1285.19 294.766 1285.19C292.484 1285.19 290.641 1284.53 289.234 1283.22C287.859 1281.91 287.172 1280.22 287.172 1278.16Z" fill="black"/>
<path d="M672.112 609.033C672.112 618.47 670.159 625.689 666.253 630.689C662.347 635.689 656.628 638.189 649.097 638.189C641.659 638.189 635.972 635.736 632.034 630.83C628.097 625.923 626.081 618.892 625.987 609.736L625.987 597.173C625.987 587.642 627.956 580.408 631.893 575.47C635.862 570.533 641.565 568.064 649.003 568.064C656.44 568.064 662.128 570.517 666.065 575.423C670.003 580.298 672.018 587.314 672.112 596.47L672.112 609.033ZM658.565 595.251C658.565 589.595 657.784 585.486 656.222 582.923C654.69 580.33 652.284 579.033 649.003 579.033C645.815 579.033 643.456 580.267 641.925 582.736C640.425 585.173 639.628 589.001 639.534 594.22L639.534 610.814C639.534 616.376 640.284 620.517 641.784 623.236C643.315 625.923 645.753 627.267 649.097 627.267C652.409 627.267 654.8 625.97 656.268 623.376C657.737 620.783 658.503 616.814 658.565 611.47L658.565 595.251ZM686.128 643.111L676.05 643.111L701.175 569.001L711.253 569.001L686.128 643.111ZM763.143 609.033C763.143 618.47 761.19 625.689 757.284 630.689C753.378 635.689 747.659 638.189 740.128 638.189C732.69 638.189 727.003 635.736 723.065 630.83C719.128 625.923 717.112 618.892 717.018 609.736L717.018 597.173C717.018 587.642 718.987 580.408 722.925 575.47C726.893 570.533 732.597 568.064 740.034 568.064C747.472 568.064 753.159 570.517 757.097 575.423C761.034 580.298 763.05 587.314 763.143 596.47L763.143 609.033ZM749.597 595.251C749.597 589.595 748.815 585.486 747.253 582.923C745.722 580.33 743.315 579.033 740.034 579.033C736.847 579.033 734.487 580.267 732.956 582.736C731.456 585.173 730.659 589.001 730.565 594.22L730.565 610.814C730.565 616.376 731.315 620.517 732.815 623.236C734.347 625.923 736.784 627.267 740.128 627.267C743.44 627.267 745.831 625.97 747.3 623.376C748.768 620.783 749.534 616.814 749.597 611.47L749.597 595.251Z" fill="black"/>
<path d="M522.713 886.763C522.713 886.763 616.008 763.324 797.915 717.223C972.444 672.991 1141.89 745.484 1141.89 745.484" stroke="black" stroke-width="30" stroke-linejoin="round"/>
<path d="M415.229 1071.76C420.428 1040.18 428.179 968.49 489.886 913.789" stroke="black" stroke-width="30" stroke-linejoin="round" stroke-dasharray="50 50"/>
<circle r="52" transform="matrix(-0.208777 -0.977963 -0.977963 0.208777 1150.9 748.6)" fill="black"/>
<path d="M705.705 2011.07H692.158V1958.85L675.986 1963.87V1952.85L704.251 1942.73H705.705V2011.07ZM732.751 2016.93H722.673L747.798 1942.82H757.876L732.751 2016.93ZM809.767 1982.85C809.767 1992.29 807.814 1999.51 803.908 2004.51C800.001 2009.51 794.283 2012.01 786.751 2012.01C779.314 2012.01 773.626 2009.55 769.689 2004.65C765.751 1999.74 763.736 1992.71 763.642 1983.55V1970.99C763.642 1961.46 765.611 1954.23 769.548 1949.29C773.517 1944.35 779.22 1941.88 786.658 1941.88C794.095 1941.88 799.783 1944.33 803.72 1949.24C807.658 1954.12 809.673 1961.13 809.767 1970.29V1982.85ZM796.22 1969.07C796.22 1963.41 795.439 1959.3 793.876 1956.74C792.345 1954.15 789.939 1952.85 786.658 1952.85C783.47 1952.85 781.111 1954.08 779.58 1956.55C778.08 1958.99 777.283 1962.82 777.189 1968.04V1984.63C777.189 1990.19 777.939 1994.33 779.439 1997.05C780.97 1999.74 783.408 2001.08 786.751 2001.08C790.064 2001.08 792.455 1999.79 793.923 1997.19C795.392 1994.6 796.158 1990.63 796.22 1985.29V1969.07Z" fill="black"/>
<path d="M577.223 1691.89C577.223 1691.89 667.059 1817.87 847.618 1868.99C1020.85 1918.05 1192.25 1850.28 1192.25 1850.28" stroke="black" stroke-width="30" stroke-linejoin="round"/>
<path d="M474.91 1503.98C479.231 1535.69 484.991 1607.57 545.158 1663.96" stroke="black" stroke-width="30" stroke-linejoin="round" stroke-dasharray="50 50"/>
<circle cx="1201.33" cy="1847.42" r="52" transform="rotate(103.64 1201.33 1847.42)" fill="black"/>
</svg>
