<svg width="3729" height="2518" viewBox="0 0 3729 2518" fill="none" xmlns="http://www.w3.org/2000/svg">
<rect x="30" y="10" width="3608" height="2480" fill="#FFE600"/>
<path d="M3619.55 274.457H3606V222.238L3589.83 227.254V216.238L3618.09 206.113H3619.55V274.457Z" fill="black"/>
<circle cx="2743" cy="610" r="265" fill="#FFE600" stroke="black" stroke-width="30"/>
<path d="M3166.31 234.508C3294.88 173.195 3489.4 145.923 3537.98 272.764C3603.8 444.634 3244.82 605.414 3048.47 605.796" stroke="black" stroke-width="30" stroke-linecap="round" stroke-linejoin="round"/>
<circle cx="3013.84" cy="604.374" r="52" transform="rotate(111.401 3013.84 604.374)" fill="black"/>
<path d="M2910.05 395.073L3114.47 257.155" stroke="black" stroke-width="30" stroke-linejoin="round" stroke-dasharray="50 50"/>
<path d="M2726.67 620.266C2726.14 627.609 2723.42 633.391 2718.52 637.609C2713.64 641.828 2707.2 643.938 2699.2 643.938C2690.45 643.938 2683.56 641 2678.53 635.125C2673.53 629.219 2671.03 621.125 2671.03 610.844V606.672C2671.03 600.109 2672.19 594.328 2674.5 589.328C2676.81 584.328 2680.11 580.5 2684.39 577.844C2688.7 575.156 2693.7 573.812 2699.39 573.812C2707.27 573.812 2713.61 575.922 2718.42 580.141C2723.23 584.359 2726.02 590.281 2726.77 597.906H2712.7C2712.36 593.5 2711.12 590.312 2709 588.344C2706.91 586.344 2703.7 585.344 2699.39 585.344C2694.7 585.344 2691.19 587.031 2688.84 590.406C2686.53 593.75 2685.34 598.953 2685.28 606.016V611.172C2685.28 618.547 2686.39 623.938 2688.61 627.344C2690.86 630.75 2694.39 632.453 2699.2 632.453C2703.55 632.453 2706.78 631.469 2708.91 629.5C2711.06 627.5 2712.3 624.422 2712.61 620.266H2726.67ZM2739.28 648.859H2729.2L2754.33 574.75H2764.41L2739.28 648.859ZM2816.3 614.781C2816.3 624.219 2814.34 631.438 2810.44 636.438C2806.53 641.438 2800.81 643.938 2793.28 643.938C2785.84 643.938 2780.16 641.484 2776.22 636.578C2772.28 631.672 2770.27 624.641 2770.17 615.484V602.922C2770.17 593.391 2772.14 586.156 2776.08 581.219C2780.05 576.281 2785.75 573.812 2793.19 573.812C2800.62 573.812 2806.31 576.266 2810.25 581.172C2814.19 586.047 2816.2 593.062 2816.3 602.219V614.781ZM2802.75 601C2802.75 595.344 2801.97 591.234 2800.41 588.672C2798.88 586.078 2796.47 584.781 2793.19 584.781C2790 584.781 2787.64 586.016 2786.11 588.484C2784.61 590.922 2783.81 594.75 2783.72 599.969V616.562C2783.72 622.125 2784.47 626.266 2785.97 628.984C2787.5 631.672 2789.94 633.016 2793.28 633.016C2796.59 633.016 2798.98 631.719 2800.45 629.125C2801.92 626.531 2802.69 622.562 2802.75 617.219V601Z" fill="black"/>
<circle cx="1612" cy="609.999" r="265" fill="#FFE600" stroke="black" stroke-width="30"/>
<path d="M1542.09 642.999V574.749H1566C1574.28 574.749 1580.56 576.343 1584.84 579.53C1589.12 582.686 1591.26 587.327 1591.26 593.452C1591.26 596.796 1590.41 599.749 1588.69 602.311C1586.97 604.843 1584.58 606.702 1581.51 607.89C1585.01 608.765 1587.76 610.53 1589.76 613.186C1591.8 615.843 1592.81 619.093 1592.81 622.936C1592.81 629.499 1590.72 634.468 1586.53 637.843C1582.34 641.218 1576.37 642.936 1568.62 642.999H1542.09ZM1556.16 613.28V631.702H1568.2C1571.51 631.702 1574.09 630.921 1575.94 629.358C1577.81 627.765 1578.75 625.577 1578.75 622.796C1578.75 616.546 1575.51 613.374 1569.05 613.28H1556.16ZM1556.16 603.343H1566.56C1573.66 603.218 1577.2 600.39 1577.2 594.858C1577.2 591.765 1576.3 589.546 1574.48 588.202C1572.7 586.827 1569.87 586.14 1566 586.14H1556.16V603.343ZM1606.78 648.858H1596.7L1621.83 574.749H1631.91L1606.78 648.858ZM1683.8 614.78C1683.8 624.218 1681.84 631.436 1677.94 636.436C1674.03 641.436 1668.31 643.936 1660.78 643.936C1653.34 643.936 1647.66 641.483 1643.72 636.577C1639.78 631.671 1637.76 624.64 1637.67 615.483V602.921C1637.67 593.39 1639.64 586.155 1643.58 581.218C1647.55 576.28 1653.25 573.811 1660.69 573.811C1668.12 573.811 1673.81 576.265 1677.75 581.171C1681.69 586.046 1683.7 593.061 1683.8 602.218V614.78ZM1670.25 600.999C1670.25 595.343 1669.47 591.233 1667.91 588.671C1666.37 586.077 1663.97 584.78 1660.69 584.78C1657.5 584.78 1655.14 586.015 1653.61 588.483C1652.11 590.921 1651.31 594.749 1651.22 599.968V616.561C1651.22 622.124 1651.97 626.265 1653.47 628.983C1655 631.671 1657.44 633.015 1660.78 633.015C1664.09 633.015 1666.48 631.718 1667.95 629.124C1669.42 626.53 1670.19 622.561 1670.25 617.218V600.999Z" fill="black"/>
<path d="M2163.62 125.999H2150.07V73.7803L2133.9 78.7959V67.7803L2162.16 57.6553H2163.62V125.999Z" fill="black"/>
<path d="M1897.21 270.614C1897.21 270.614 2031.74 194.172 2217.04 223.821C2394.82 252.267 2521.75 385.899 2521.75 385.899" stroke="black" stroke-width="30" stroke-linejoin="round"/>
<path d="M1780.29 395.773C1795.38 367.555 1825.81 302.177 1901.84 270.263" stroke="black" stroke-width="30" stroke-linejoin="round" stroke-dasharray="50 50"/>
<circle cx="2553.46" cy="426.388" r="52" transform="rotate(111.401 2553.46 426.388)" fill="black"/>
<circle cx="617" cy="615.999" r="265" fill="#FFE600" stroke="black" stroke-width="30"/>
<path d="M583.625 633.937H558.968L554.281 647.999H539.328L564.734 579.749H577.765L603.312 647.999H588.359L583.625 633.937ZM562.765 622.546H579.828L571.25 596.999L562.765 622.546ZM613.062 653.858H602.984L628.109 579.749H638.187L613.062 653.858ZM690.078 619.78C690.078 629.218 688.125 636.437 684.218 641.437C680.312 646.437 674.593 648.937 667.062 648.937C659.625 648.937 653.937 646.483 650 641.577C646.062 636.671 644.046 629.64 643.953 620.483V607.921C643.953 598.39 645.921 591.155 649.859 586.218C653.828 581.28 659.531 578.812 666.968 578.812C674.406 578.812 680.093 581.265 684.031 586.171C687.968 591.046 689.984 598.062 690.078 607.218V619.78ZM676.531 605.999C676.531 600.343 675.75 596.233 674.187 593.671C672.656 591.077 670.25 589.78 666.968 589.78C663.781 589.78 661.421 591.015 659.89 593.483C658.39 595.921 657.593 599.749 657.5 604.968V621.562C657.5 627.124 658.25 631.265 659.75 633.983C661.281 636.671 663.718 638.015 667.062 638.015C670.375 638.015 672.765 636.718 674.234 634.124C675.703 631.53 676.468 627.562 676.531 622.218V605.999Z" fill="black"/>
<path d="M1059.62 98.999H1046.07V46.7803L1029.9 51.7959V40.7803L1058.16 30.6553H1059.62V98.999Z" fill="black"/>
<path d="M819.208 233.614C819.208 233.614 953.736 157.172 1139.04 186.821C1316.82 215.267 1443.75 348.899 1443.75 348.899" stroke="black" stroke-width="30" stroke-linejoin="round"/>
<path d="M710.29 354.773C725.38 326.555 755.807 261.177 831.843 229.263" stroke="black" stroke-width="30" stroke-linejoin="round" stroke-dasharray="50 50"/>
<circle cx="1459.46" cy="389.388" r="52" transform="rotate(111.401 1459.46 389.388)" fill="black"/>
<circle cx="2749" cy="1576" r="265" fill="#FFE600" stroke="black" stroke-width="30"/>
<path d="M3590.79 2054.23H3577.24V2002.01L3561.07 2007.03V1996.01L3589.34 1985.89H3590.79V2054.23Z" fill="black"/>
<path d="M3307.22 1672.69C3435.89 1733.81 3579.72 1867.57 3511.91 1985.26C3420.04 2144.73 3068.87 1967.52 2944.76 1815.38" stroke="black" stroke-width="30" stroke-linecap="round" stroke-linejoin="round"/>
<circle cx="2924.02" cy="1787.61" r="52" transform="rotate(162.304 2924.02 1787.61)" fill="black"/>
<path d="M3021.01 1575.07L3256.95 1646.74" stroke="black" stroke-width="30" stroke-linejoin="round" stroke-dasharray="50 50"/>
<path d="M2446.56 2438.08C2446.56 2447.52 2444.6 2454.74 2440.7 2459.74C2436.79 2464.74 2431.07 2467.24 2423.54 2467.24C2416.1 2467.24 2410.42 2464.79 2406.48 2459.88C2402.54 2454.97 2400.52 2447.94 2400.43 2438.79V2426.22C2400.43 2416.69 2402.4 2409.46 2406.34 2404.52C2410.31 2399.58 2416.01 2397.11 2423.45 2397.11C2430.88 2397.11 2436.57 2399.57 2440.51 2404.47C2444.45 2409.35 2446.46 2416.36 2446.56 2425.52V2438.08ZM2433.01 2424.3C2433.01 2418.65 2432.23 2414.54 2430.67 2411.97C2429.13 2409.38 2426.73 2408.08 2423.45 2408.08C2420.26 2408.08 2417.9 2409.32 2416.37 2411.79C2414.87 2414.22 2414.07 2418.05 2413.98 2423.27V2439.86C2413.98 2445.43 2414.73 2449.57 2416.23 2452.29C2417.76 2454.97 2420.2 2456.32 2423.54 2456.32C2426.85 2456.32 2429.24 2455.02 2430.71 2452.43C2432.18 2449.83 2432.95 2445.86 2433.01 2440.52V2424.3Z" fill="black"/>
<path d="M2738.16 2074.89C2708.1 2214.13 2610.78 2384.75 2480.7 2345.66C2304.44 2292.7 2396.62 1910.31 2516.34 1754.68" stroke="black" stroke-width="30" stroke-linecap="round" stroke-linejoin="round"/>
<circle cx="2532.13" cy="1741.4" r="52" transform="rotate(162.304 2532.13 1741.4)" fill="black"/>
<path d="M2782.63 1855.69L2734.5 2097.54" stroke="black" stroke-width="30" stroke-linejoin="round" stroke-dasharray="50 50"/>
<path d="M2720.15 1581.11H2693.15V1609H2679.09V1540.75H2723.53V1552.14H2693.15V1569.77H2720.15V1581.11ZM2735.06 1614.86H2724.98L2750.11 1540.75H2760.19L2735.06 1614.86ZM2799.05 1609H2785.5V1556.78L2769.33 1561.8V1550.78L2797.59 1540.66H2799.05V1609Z" fill="black"/>
<path d="M3288.55 1041.16C3288.55 1050.6 3286.6 1057.82 3282.69 1062.82C3278.79 1067.82 3273.07 1070.32 3265.54 1070.32C3258.1 1070.32 3252.41 1067.87 3248.47 1062.96C3244.54 1058.06 3242.52 1051.02 3242.43 1041.87L3242.43 1029.31C3242.43 1019.77 3244.4 1012.54 3248.33 1007.6C3252.3 1002.66 3258.01 1000.2 3265.44 1000.2C3272.88 1000.2 3278.57 1002.65 3282.51 1007.56C3286.44 1012.43 3288.46 1019.45 3288.55 1028.6L3288.55 1041.16ZM3275.01 1027.38C3275.01 1021.73 3274.22 1017.62 3272.66 1015.06C3271.13 1012.46 3268.72 1011.16 3265.44 1011.16C3262.26 1011.16 3259.9 1012.4 3258.36 1014.87C3256.86 1017.31 3256.07 1021.13 3255.97 1026.35L3255.97 1042.95C3255.97 1048.51 3256.72 1052.65 3258.22 1055.37C3259.76 1058.06 3262.19 1059.4 3265.54 1059.4C3268.85 1059.4 3271.24 1058.1 3272.71 1055.51C3274.18 1052.91 3274.94 1048.95 3275.01 1043.6L3275.01 1027.38Z" fill="black"/>
<path d="M3112.99 815.099C3112.99 815.099 3196.38 945.434 3176.48 1132.03C3157.39 1311.07 3030.6 1444.83 3030.6 1444.83" stroke="black" stroke-width="30" stroke-linejoin="round"/>
<path d="M2986.28 712.682C3015.25 726.272 3082.14 753.23 3117.99 827.488" stroke="black" stroke-width="30" stroke-linejoin="round" stroke-dasharray="50 50"/>
<circle cx="2990.99" cy="1462.64" r="52" transform="rotate(-161.604 2990.99 1462.64)" fill="black"/>
<circle cx="1618" cy="1576" r="265" fill="#FFE600" stroke="black" stroke-width="30"/>
<path d="M1589.16 1579.42H1562.16V1597.7H1593.84V1609H1548.09V1540.75H1593.75V1552.14H1562.16V1568.41H1589.16V1579.42ZM1605.47 1614.86H1595.39L1620.51 1540.75H1630.59L1605.47 1614.86ZM1682.48 1580.78C1682.48 1590.22 1680.53 1597.44 1676.62 1602.44C1672.72 1607.44 1667 1609.94 1659.47 1609.94C1652.03 1609.94 1646.34 1607.48 1642.41 1602.58C1638.47 1597.67 1636.45 1590.64 1636.36 1581.48V1568.92C1636.36 1559.39 1638.33 1552.16 1642.26 1547.22C1646.23 1542.28 1651.94 1539.81 1659.37 1539.81C1666.81 1539.81 1672.5 1542.26 1676.44 1547.17C1680.37 1552.05 1682.39 1559.06 1682.48 1568.22V1580.78ZM1668.94 1567C1668.94 1561.34 1668.16 1557.23 1666.59 1554.67C1665.06 1552.08 1662.66 1550.78 1659.37 1550.78C1656.19 1550.78 1653.83 1552.01 1652.3 1554.48C1650.8 1556.92 1650 1560.75 1649.91 1565.97V1582.56C1649.91 1588.12 1650.66 1592.26 1652.16 1594.98C1653.69 1597.67 1656.12 1599.01 1659.47 1599.01C1662.78 1599.01 1665.17 1597.72 1666.64 1595.12C1668.11 1592.53 1668.87 1588.56 1668.94 1583.22V1567Z" fill="black"/>
<path d="M2169.62 1092H2156.07V1039.78L2139.9 1044.8V1033.78L2168.16 1023.66H2169.62V1092Z" fill="black"/>
<path d="M1903.21 1236.61C1903.21 1236.61 2037.74 1160.17 2223.04 1189.82C2400.82 1218.27 2527.75 1351.9 2527.75 1351.9" stroke="black" stroke-width="30" stroke-linejoin="round"/>
<path d="M1786.29 1361.77C1801.38 1333.55 1831.81 1268.18 1907.84 1236.26" stroke="black" stroke-width="30" stroke-linejoin="round" stroke-dasharray="50 50"/>
<circle cx="2559.46" cy="1392.39" r="52" transform="rotate(111.401 2559.46 1392.39)" fill="black"/>
<circle cx="622.999" cy="1582" r="265" fill="#FFE600" stroke="black" stroke-width="30"/>
<path d="M551.094 1614V1545.75H572.094C578.094 1545.75 583.453 1547.11 588.172 1549.83C592.922 1552.51 596.625 1556.36 599.281 1561.36C601.937 1566.33 603.265 1571.98 603.265 1578.33V1581.47C603.265 1587.81 601.953 1593.45 599.328 1598.39C596.734 1603.33 593.062 1607.16 588.312 1609.87C583.562 1612.59 578.203 1613.97 572.234 1614H551.094ZM565.156 1557.14V1602.7H571.953C577.453 1602.7 581.656 1600.91 584.562 1597.31C587.469 1593.72 588.953 1588.58 589.015 1581.89V1578.28C589.015 1571.34 587.578 1566.09 584.703 1562.53C581.828 1558.94 577.625 1557.14 572.094 1557.14H565.156ZM616.906 1619.86H606.828L631.953 1545.75H642.031L616.906 1619.86ZM693.922 1585.78C693.922 1595.22 691.969 1602.44 688.062 1607.44C684.156 1612.44 678.437 1614.94 670.906 1614.94C663.469 1614.94 657.781 1612.48 653.844 1607.58C649.906 1602.67 647.89 1595.64 647.797 1586.48V1573.92C647.797 1564.39 649.765 1557.16 653.703 1552.22C657.672 1547.28 663.375 1544.81 670.812 1544.81C678.25 1544.81 683.937 1547.26 687.875 1552.17C691.812 1557.05 693.828 1564.06 693.922 1573.22V1585.78ZM680.375 1572C680.375 1566.34 679.594 1562.23 678.031 1559.67C676.5 1557.08 674.094 1555.78 670.812 1555.78C667.625 1555.78 665.265 1557.01 663.734 1559.48C662.234 1561.92 661.437 1565.75 661.344 1570.97V1587.56C661.344 1593.12 662.094 1597.26 663.594 1599.98C665.125 1602.67 667.562 1604.01 670.906 1604.01C674.219 1604.01 676.609 1602.72 678.078 1600.12C679.547 1597.53 680.312 1593.56 680.375 1588.22V1572Z" fill="black"/>
<path d="M1065.62 1065H1052.07V1012.78L1035.9 1017.8V1006.78L1064.16 996.655H1065.62V1065Z" fill="black"/>
<path d="M825.208 1199.61C825.208 1199.61 959.736 1123.17 1145.04 1152.82C1322.82 1181.27 1449.75 1314.9 1449.75 1314.9" stroke="black" stroke-width="30" stroke-linejoin="round"/>
<path d="M716.29 1320.77C731.381 1292.55 761.807 1227.18 837.843 1195.26" stroke="black" stroke-width="30" stroke-linejoin="round" stroke-dasharray="50 50"/>
<circle cx="1465.46" cy="1355.39" r="52" transform="rotate(111.401 1465.46 1355.39)" fill="black"/>
<path d="M100.024 1078.16C100.024 1087.6 98.071 1094.82 94.1648 1099.82C90.2585 1104.82 84.5398 1107.32 77.0085 1107.32C69.571 1107.32 63.8835 1104.87 59.946 1099.96C56.0085 1095.06 53.9929 1088.02 53.8992 1078.87L53.8992 1066.31C53.8992 1056.77 55.8679 1049.54 59.8054 1044.6C63.7742 1039.66 69.4773 1037.2 76.9148 1037.2C84.3523 1037.2 90.0398 1039.65 93.9773 1044.56C97.9148 1049.43 99.9304 1056.45 100.024 1065.6L100.024 1078.16ZM86.4773 1064.38C86.4773 1058.73 85.696 1054.62 84.1335 1052.06C82.6023 1049.46 80.196 1048.16 76.9148 1048.16C73.7273 1048.16 71.3679 1049.4 69.8367 1051.87C68.3367 1054.31 67.5398 1058.13 67.446 1063.35L67.446 1079.95C67.446 1085.51 68.196 1089.65 69.696 1092.37C71.2273 1095.06 73.6648 1096.4 77.0085 1096.4C80.321 1096.4 82.7117 1095.1 84.1804 1092.51C85.6492 1089.91 86.4148 1085.95 86.4773 1080.6L86.4773 1064.38Z" fill="black"/>
<path d="M250.434 852.099C250.434 852.099 167.045 982.434 186.939 1169.03C206.026 1348.07 332.821 1481.83 332.821 1481.83" stroke="black" stroke-width="30" stroke-linejoin="round"/>
<path d="M377.136 749.682C348.166 763.272 281.283 790.23 245.427 864.488" stroke="black" stroke-width="30" stroke-linejoin="round" stroke-dasharray="50 50"/>
<circle r="52" transform="matrix(0.948898 -0.315582 -0.315582 -0.948898 372.43 1499.64)" fill="black"/>
</svg>
