<svg width="496" height="496" viewBox="0 0 496 496" fill="none" xmlns="http://www.w3.org/2000/svg">
<path d="M32 208H128V304H32V208Z" fill="black"/>
<path d="M32 344H128V440H32V344Z" fill="black"/>
<path d="M352.504 256C357.258 256 361.855 257.391 365.816 260.031L421.688 297.281C428.289 301.672 435.961 304 443.879 304H496V288H443.887C439.137 288 434.527 286.609 430.566 283.969L408 268.922V0H104V48H0V496H304V448H408V380.695C408.504 380.574 409.023 380.535 409.527 380.414L446.742 371.113C455 369.047 463.496 368 472 368H496V352H472C462.191 352 452.383 353.207 442.863 355.586L405.648 364.887C386.52 369.664 366.16 368.887 347.473 362.656L333.992 358.16C321.719 354.07 308.938 352 296 352H226.191C226.191 338.77 236.961 328 250.191 328H338.191C351.426 328 362.191 317.23 362.191 304C362.191 291.727 352.895 281.695 341 280.281L347.566 256H352.504ZM342.398 377.832C354.672 381.93 367.457 384 380.391 384C384.273 384 388.145 383.664 392 383.289V432H304V405.832C306.809 402.594 308.984 398.762 310.152 394.426L316.703 370.16C320.824 371 324.91 372 328.922 373.344L342.398 377.832ZM300.672 368.184L294.711 390.246C293.16 395.992 287.922 400 281.977 400H279.383C272.113 400 266.199 394.09 266.199 386.816C266.199 385.648 266.352 384.496 266.656 383.375L270.809 368H296C297.559 368 299.113 368.121 300.672 368.184V368.184ZM254.23 368L251.207 379.191C250.535 381.672 250.199 384.23 250.199 386.816C250.199 397.633 256.184 406.984 264.945 412.023L262.434 422.055L277.953 425.938L280.441 416H281.977C284.039 416 286.039 415.711 288 415.297V480H16V64H120V16H392V258.258L374.695 246.719C368.098 242.328 360.426 240 352.504 240H351.887L385.184 116.809C385.855 114.328 386.191 111.77 386.191 109.184C386.191 93.0898 373.098 80 357.008 80H354.414C341.258 80 329.672 88.8711 326.238 101.574L304 183.863V48H136V64H288V240H271.449C262.742 240 254.543 242.887 247.688 248H168V264H230.879L214.879 280H168V296H198.887L185.52 309.367C180.801 314.078 178.199 320.352 178.199 327.031C178.199 340.801 189.398 352 203.176 352C205.641 352 208.016 351.527 210.32 350.84C210.313 351.23 210.199 351.602 210.199 352C210.199 360.824 217.375 368 226.199 368H254.23ZM315.855 312H285.945L319.727 187.008L347.168 196.152L315.855 312ZM254.48 263.023C258.953 258.559 265.137 256 271.449 256H284.504L277.977 280.145C267.855 280.512 258.367 284.512 251.168 291.711L209.512 333.367C207.84 335.039 205.527 336 203.168 336C198.215 336 194.191 331.977 194.191 327.031C194.191 324.633 195.129 322.383 196.824 320.688L254.48 263.023ZM262.48 303.023C265.504 300 269.352 297.938 273.457 296.863L269.367 312H253.512L262.48 303.023ZM369.734 112.633L359.938 148.879L332.496 139.734L341.68 105.754C343.238 100.008 348.473 96 354.414 96H357.008C364.281 96 370.191 101.91 370.191 109.184C370.191 110.352 370.039 111.504 369.734 112.633V112.633ZM328.32 155.207L355.762 164.352L351.344 180.68L323.902 171.535L328.32 155.207ZM338.191 296C342.602 296 346.191 299.594 346.191 304C346.191 308.406 342.602 312 338.191 312H332.426L336.754 296H338.191Z" fill="black"/>
<path d="M64 112H80V128H64V112Z" fill="black"/>
<path d="M96 112H112V128H96V112Z" fill="black"/>
<path d="M128 112H144V128H128V112Z" fill="black"/>
<path d="M160 112H176V128H160V112Z" fill="black"/>
<path d="M192 112H208V128H192V112Z" fill="black"/>
<path d="M165.656 189.656L154.344 178.344L80 252.688L69.6562 242.344L58.3438 253.656L80 275.312L165.656 189.656Z" fill="#FFE600"/>
<path d="M154.344 314.344L80 388.688L69.6562 378.344L58.3438 389.656L80 411.312L165.656 325.656L154.344 314.344Z" fill="#FFE600"/>
<path d="M256 440H272V456H256V440Z" fill="black"/>
<path d="M152 440H240V456H152V440Z" fill="black"/>
<path d="M168 216H272V232H168V216Z" fill="black"/>
</svg>
